<svg version="1.1" id="Layer_1" xmlns="http://www.w3.org/2000/svg" xmlns:xlink="http://www.w3.org/1999/xlink" x="0px" y="0px"
	 width="100%" viewBox="0 0 240 162" enable-background="new 0 0 240 162" xml:space="preserve">
<path fill="#FCFDFE" opacity="1.000000" stroke="none" 
	d="
M158.000000,163.000000 
	C105.333336,163.000000 53.166672,163.000000 1.000007,163.000000 
	C1.000005,109.000008 1.000005,55.000011 1.000002,1.000014 
	C80.999992,1.000010 160.999985,1.000010 240.999969,1.000005 
	C240.999985,54.999985 240.999985,108.999969 241.000000,162.999969 
	C213.500000,163.000000 186.000000,163.000000 158.000000,163.000000 
M85.294632,8.166356 
	C83.071152,9.390749 80.847664,10.615142 77.971222,11.995666 
	C71.312004,16.463333 65.587929,21.651354 63.686577,29.877846 
	C63.629177,30.094204 63.571777,30.310564 63.514381,30.526922 
	C63.669273,30.341574 63.824165,30.156225 64.633186,29.802387 
	C68.992966,23.912388 74.127678,18.963545 81.822899,16.174809 
	C83.212738,15.758527 84.602577,15.342245 86.725029,15.013356 
	C87.827271,14.714758 88.929504,14.416160 90.785416,14.329090 
	C92.858765,14.509819 94.932106,14.690547 97.697273,15.119407 
	C99.133865,15.383914 100.570450,15.648421 102.683792,16.235905 
	C105.008224,16.934319 107.332664,17.632730 109.657097,18.331144 
	C110.018539,17.735685 110.379990,17.140224 110.741440,16.544765 
	C108.158173,14.028507 105.574913,11.512250 102.615204,8.442601 
	C100.745987,7.840743 98.876762,7.238885 96.264442,6.268791 
	C94.178947,6.538506 92.093452,6.808222 89.302345,6.973981 
	C88.198654,7.359679 87.094971,7.745378 85.294632,8.166356 
M73.279549,3.095401 
	C72.170258,3.335410 71.060959,3.575418 69.196083,3.775916 
	C67.154289,4.859662 65.112503,5.943408 62.473164,7.349470 
	C52.012501,17.959457 52.738918,42.656155 61.507118,51.505669 
	C58.771862,40.094135 59.750744,29.955902 65.754402,20.082445 
	C67.591125,17.764259 69.427856,15.446074 71.851746,12.895204 
	C72.892372,11.874965 73.932991,10.854726 75.662498,9.813709 
	C78.419495,7.988374 81.176491,6.163039 83.933487,4.337704 
	C83.819237,3.950473 83.704994,3.563242 83.590752,3.176012 
	C80.386139,3.176012 77.181526,3.176012 73.279549,3.095401 
M71.636269,66.425301 
	C68.793137,64.205727 65.950005,61.986149 62.871662,59.147041 
	C60.643597,56.068760 58.415527,52.990475 56.074055,49.175999 
	C51.967545,41.268776 50.466393,32.813553 50.912373,23.311804 
	C50.556004,22.885067 50.199635,22.458328 49.843262,22.031590 
	C49.530903,22.347355 49.218544,22.663118 48.363079,23.282595 
	C47.835735,24.157866 47.308388,25.033134 46.210598,26.273373 
	C38.617367,38.732464 38.640976,45.692162 46.612526,56.884163 
	C49.023090,59.407047 51.433659,61.929935 54.199417,64.983803 
	C56.801483,66.613953 59.403545,68.244110 62.554852,70.357185 
	C65.656662,71.439835 68.758469,72.522476 72.524002,73.945145 
	C79.101364,74.473190 85.678719,75.001228 92.256081,75.529274 
	C92.215462,75.357147 92.174843,75.185020 92.134232,75.012901 
	C85.425346,72.337440 78.716469,69.661980 71.636269,66.425301 
M224.752182,25.929285 
	C225.850372,26.730080 226.858749,27.734600 228.073822,28.270292 
	C229.137787,28.739359 230.433945,28.681732 231.627548,28.856770 
	C231.298325,27.593172 231.139969,25.326395 230.610855,25.236271 
	C228.056061,24.801126 225.401505,24.951799 222.092361,25.018679 
	C220.930603,27.109268 219.713623,29.171534 218.622925,31.298559 
	C217.572128,33.347782 216.651794,35.463909 215.646957,37.608669 
	C219.647522,39.275940 220.015625,55.536598 215.337265,59.491730 
	C219.270309,59.491730 223.275131,59.491730 226.897949,59.491730 
	C225.559738,58.151062 223.344681,56.978550 223.254761,55.661015 
	C222.861893,49.904282 223.085754,44.105457 223.085754,38.406288 
	C225.445465,38.103390 227.237061,37.873417 229.028671,37.643440 
	C229.011353,37.240734 228.994049,36.838028 228.976730,36.435318 
	C227.035324,36.141106 225.093933,35.846893 222.595276,35.468227 
	C223.093201,32.126274 223.548798,29.068373 224.752182,25.929285 
M162.260925,66.007133 
	C161.114609,66.406769 159.993668,66.932747 158.814636,67.169525 
	C157.698898,67.393578 156.407120,67.056908 155.428894,67.494576 
	C155.037109,67.669861 154.869537,69.687729 155.315292,70.107819 
	C156.182251,70.924889 158.020782,71.952370 158.631042,71.571060 
	C160.570175,70.359421 162.129532,68.540001 164.193527,66.337311 
	C165.194901,63.405731 166.196259,60.474155 167.726410,57.002884 
	C170.656158,49.930462 173.585907,42.858044 176.348785,36.188461 
	C174.540131,36.188461 171.613724,36.188461 167.711731,36.188461 
	C169.542923,37.465691 170.604889,38.206394 172.015411,39.190216 
	C169.943283,44.460896 167.972931,49.472656 165.696777,53.772129 
	C163.776917,48.666393 161.857071,43.560654 159.977432,38.561893 
	C161.198288,37.858307 162.095642,37.341160 162.992981,36.824013 
	C162.934906,36.543957 162.876816,36.263897 162.818741,35.983841 
	C156.945435,35.983841 151.072144,35.983841 145.255020,35.983841 
	C145.047180,33.670780 144.885376,31.869982 144.714737,29.970848 
	C141.955475,32.793945 139.660675,35.141834 138.062149,36.777336 
	C138.845825,38.641483 140.019745,40.307812 140.186508,42.069489 
	C140.514755,45.537056 139.928680,49.106461 140.401474,52.540012 
	C140.752380,55.088230 141.533600,58.727402 143.288162,59.639477 
	C145.456436,60.766617 148.830826,59.573536 151.225204,59.413612 
	C148.870316,57.513752 145.609146,56.185471 145.379227,54.454540 
	C144.670898,49.122017 145.120941,43.635628 145.120941,38.265190 
	C154.647781,37.796406 154.651825,37.794811 157.947220,46.144653 
	C159.289490,49.545654 160.929062,52.872387 161.841843,56.386559 
	C162.606262,59.329597 162.510117,62.496162 162.260925,66.007133 
M75.825684,119.141975 
	C81.446808,119.611412 87.067940,120.080849 92.689064,120.550293 
	C93.117775,119.895569 93.546478,119.240845 93.975182,118.586121 
	C85.012466,118.959290 87.127136,113.253914 87.022873,108.800842 
	C86.960564,106.139793 86.997673,103.476021 87.014236,100.813614 
	C87.060005,93.456764 87.683182,93.091400 94.869675,94.115082 
	C96.078011,94.287193 97.598473,92.268082 98.974716,91.261429 
	C97.827072,90.138245 96.617920,88.037010 95.545151,88.104477 
	C93.579643,88.228081 91.674332,89.590675 89.785248,90.520599 
	C88.932343,90.940437 88.178581,91.561676 87.332619,92.122871 
	C86.721046,90.569351 86.203186,89.253899 85.610985,87.749573 
	C82.293381,88.382851 79.314102,88.951546 76.334831,89.520241 
	C81.041855,91.019653 81.018326,94.345718 80.879074,97.969711 
	C80.700302,102.622223 80.567474,107.306694 80.911179,111.940575 
	C81.253159,116.551254 79.805550,118.905396 74.481819,117.699120 
	C70.685753,118.095947 69.473816,115.935791 69.464134,112.609085 
	C69.448174,107.126396 69.441177,101.643677 69.437233,96.160965 
	C69.434212,91.967690 67.557816,88.823853 63.365688,88.310753 
	C59.833775,87.878464 56.086105,88.188362 52.585133,88.906662 
	C50.484821,89.337593 48.218975,90.829666 46.904957,92.524925 
	C46.115810,93.543037 47.015137,95.869888 47.155621,97.608566 
	C48.676365,96.966209 50.317390,96.505005 51.668827,95.607658 
	C52.380581,95.135071 52.354565,93.488121 53.064957,93.088722 
	C55.084885,91.953049 57.803986,89.969109 59.331280,90.586502 
	C61.178032,91.333038 62.550121,94.253967 63.281792,96.508385 
	C64.219711,99.398293 61.878487,100.490967 59.473843,101.216133 
	C56.778347,102.029022 54.119259,102.963196 51.447300,103.853516 
	C45.382011,105.874557 43.189510,109.699158 44.975353,115.131172 
	C46.508442,119.794380 51.503483,122.201004 56.758083,120.593468 
	C58.945675,119.924217 60.990631,118.788742 63.069462,117.878815 
	C67.112282,122.041763 69.871483,122.179443 75.825684,119.141975 
M169.977783,114.222183 
	C172.868164,108.586159 172.891846,102.643867 171.304901,96.752556 
	C169.371033,89.573257 163.286743,86.201729 156.275528,88.271255 
	C153.801010,89.001671 151.530487,90.423195 148.730148,91.733490 
	C148.730148,88.215637 148.730148,85.083664 148.730148,81.951683 
	C148.730148,78.853600 148.730148,75.755516 148.730148,72.083191 
	C144.657120,72.847221 141.360916,73.465538 138.064713,74.083855 
	C137.896820,74.571060 137.728928,75.058273 137.561035,75.545479 
	C142.702057,75.157928 142.525818,78.193527 142.486298,81.346001 
	C142.396637,88.498352 142.458466,95.652603 142.458588,102.806076 
	C142.458679,108.740685 142.458603,114.675285 142.458603,119.737007 
	C145.582138,119.955215 147.968658,119.865120 150.242630,120.327957 
	C157.674850,121.840706 164.508057,121.558136 169.977783,114.222183 
M204.372940,107.095436 
	C206.237488,117.023697 210.928070,121.780907 218.706955,120.916817 
	C221.707748,120.583473 224.566040,118.967369 227.541092,117.917412 
	C228.964996,120.623543 234.283340,121.299385 239.383820,118.728432 
	C234.163055,118.400650 233.943436,115.285095 234.007095,111.491028 
	C234.196808,100.181564 234.084671,88.866859 234.065002,77.554245 
	C234.062012,75.838470 233.923538,74.122925 233.836624,72.155800 
	C230.026627,72.865135 226.874847,73.451935 222.374954,74.289711 
	C231.664200,77.675163 226.523743,83.947273 228.157211,88.913841 
	C212.865448,85.379372 204.618057,91.653862 204.372940,107.095436 
M4.049120,89.859650 
	C3.785068,90.993362 3.458987,92.116646 3.266404,93.262375 
	C0.914607,107.253860 7.205631,118.415840 19.211042,120.524277 
	C23.870676,121.342621 28.879169,121.198318 33.583752,120.506508 
	C41.414829,119.354927 43.344112,115.519524 40.963982,106.821625 
	C40.212967,108.043549 39.470608,108.884644 39.130077,109.865273 
	C37.006237,115.981354 32.650192,119.011055 26.293045,118.933372 
	C19.867935,118.854874 15.126713,115.801704 12.671513,109.807983 
	C9.297019,101.570068 9.302471,93.225311 13.068126,85.122688 
	C15.811732,79.219231 20.779308,76.755516 27.240845,76.926468 
	C33.135201,77.082428 36.972347,79.734085 38.610203,85.484398 
	C38.789536,86.113998 39.459396,86.603889 39.901741,87.158585 
	C40.994690,84.589409 41.199837,82.181320 40.911160,79.833969 
	C40.758869,78.595627 40.047226,76.862778 39.074905,76.373856 
	C26.401129,70.000908 9.879171,76.102135 4.049120,89.859650 
M178.908966,119.955940 
	C183.633942,119.770172 188.358932,119.584404 194.384048,119.347519 
	C196.991013,122.068825 201.280289,122.126587 205.257202,117.526596 
	C199.620071,118.710472 199.457443,115.112801 199.389633,111.616821 
	C199.289490,106.454773 199.799225,101.231911 199.149292,96.150047 
	C198.821564,93.587570 197.080872,90.419724 194.982834,89.034386 
	C190.696030,86.203812 181.164886,87.816589 177.668472,91.461845 
	C176.590744,92.585464 176.187256,94.578606 176.024750,96.227783 
	C175.972900,96.754196 178.002655,98.167679 178.541519,97.933945 
	C179.817444,97.380508 180.819702,96.129524 181.831329,95.064354 
	C182.268600,94.603951 182.305038,93.608231 182.782181,93.366821 
	C184.978088,92.255806 187.463776,90.280838 189.456940,90.659744 
	C191.055267,90.963608 192.565308,94.045822 193.273331,96.174812 
	C194.327103,99.343437 191.856537,100.480148 189.277786,101.257492 
	C186.734940,102.024010 184.227859,102.908936 181.703613,103.737457 
	C173.300705,106.495514 171.838821,113.140846 178.908966,119.955940 
M124.920715,118.336296 
	C121.993637,115.581924 119.066551,112.827560 116.366531,110.286858 
	C114.916977,117.805862 116.764931,120.502083 124.535721,120.969040 
	C126.816109,121.106079 129.208649,120.906677 131.419373,120.346657 
	C135.704727,119.261086 138.361298,116.359718 138.636490,111.879707 
	C138.896790,107.642372 136.831848,104.546455 132.920486,102.832634 
	C130.044525,101.572502 126.935974,100.735886 124.275917,99.136864 
	C123.000267,98.370041 121.674690,96.127495 121.901703,94.818649 
	C122.178520,93.222641 123.785828,91.233299 125.309708,90.602280 
	C128.942352,89.098099 131.694183,90.925957 133.521576,94.192902 
	C134.152298,95.320473 134.669067,96.511772 135.237885,97.673965 
	C135.889236,97.425842 136.540588,97.177711 137.191940,96.929588 
	C136.367203,94.287689 136.307465,90.818199 134.545868,89.189857 
	C131.599655,86.466522 122.701172,87.649399 119.466812,90.247002 
	C114.895493,93.918365 114.961349,100.628571 119.881660,103.859604 
	C122.189003,105.374779 125.018303,106.089386 127.598366,107.196396 
	C130.638367,108.500771 133.474213,110.179482 132.863083,114.068222 
	C132.242523,118.017220 129.238358,118.808807 124.920715,118.336296 
M98.796051,29.204042 
	C92.528252,35.774426 91.028542,45.386555 95.066315,53.109119 
	C98.299538,59.292912 105.743492,61.928986 115.193184,60.236496 
	C122.296806,58.964199 123.154434,57.578861 121.128441,49.734035 
	C119.113892,55.345573 116.098976,59.261372 109.962189,58.907837 
	C103.054222,58.509876 98.845718,52.901291 98.569397,43.874649 
	C98.285217,34.591549 102.204361,28.351702 108.962433,27.539391 
	C114.767662,26.841612 118.906013,29.058661 120.433792,36.333294 
	C122.693794,27.813393 121.913483,26.572535 115.196342,25.859051 
	C109.646370,25.269539 104.230293,25.426096 98.796051,29.204042 
M111.090103,120.209793 
	C112.020584,119.991852 112.951073,119.773911 113.881561,119.555969 
	C114.324348,119.061562 114.767143,118.567162 115.209930,118.072762 
	C107.731789,119.289169 109.087479,114.909821 109.073456,111.520134 
	C109.026741,100.227722 109.055733,88.934990 109.055702,77.642380 
	C109.055702,75.918854 109.055702,74.195328 109.055702,72.121346 
	C105.031677,72.857742 101.848183,73.440331 98.090767,74.127937 
	C102.961952,77.099846 102.962311,77.099846 102.962563,82.969528 
	C102.962914,91.106850 103.107826,99.247780 102.905800,107.380081 
	C102.792587,111.937027 105.353714,117.693863 98.323761,120.210564 
	C102.272850,120.210564 106.221931,120.210564 111.090103,120.209793 
M207.734268,37.659443 
	C202.938309,34.669296 197.902786,34.423679 193.184433,37.380489 
	C188.483200,40.326572 188.213547,45.320400 188.689651,50.267349 
	C189.321182,56.828812 193.255051,60.408638 199.809601,60.620064 
	C206.315613,60.829926 210.660965,57.466702 211.719849,51.070869 
	C212.505707,46.324142 211.911926,41.795609 207.734268,37.659443 
M132.315155,41.820732 
	C132.315155,39.867130 132.315155,37.913528 132.315155,35.465027 
	C129.331543,35.941612 126.869232,36.334923 123.718658,36.838173 
	C128.762558,40.123520 128.652710,55.390541 124.451370,59.640663 
	C128.150345,59.640663 131.936050,59.640663 134.588806,59.640663 
	C133.777206,57.159065 132.660431,54.967102 132.407730,52.679680 
	C132.045837,49.403790 132.315125,46.058170 132.315155,41.820732 
M45.918320,149.381653 
	C45.884422,147.387466 46.290081,145.246613 45.687897,143.442062 
	C45.131641,141.775131 43.760555,139.744324 42.263741,139.195526 
	C40.572369,138.575409 38.340515,139.429428 36.343704,139.642380 
	C36.414215,139.956070 36.484726,140.269745 36.555237,140.583435 
	C38.758381,141.105392 40.961525,141.627350 43.164669,142.149307 
	C43.065300,142.636246 42.965935,143.123169 42.866566,143.610107 
	C41.594170,143.891174 39.996876,143.790375 39.120022,144.536392 
	C37.514744,145.902161 35.918205,147.612015 35.206852,149.511292 
	C34.962063,150.164871 38.026188,153.032867 38.455315,152.801910 
	C40.838577,151.519257 44.938454,155.182709 45.918320,149.381653 
M231.109634,151.935486 
	C232.661362,152.114227 234.213104,152.292953 236.058304,152.505478 
	C236.058304,150.980301 236.059982,149.494202 236.057846,148.008102 
	C236.055923,146.675812 236.138535,145.336243 236.029877,144.012512 
	C235.605591,138.844254 231.638138,137.325409 226.974243,140.514236 
	C229.049683,140.983215 231.181656,141.464966 233.313614,141.946732 
	C233.298370,142.401077 233.283142,142.855423 233.267899,143.309784 
	C232.007477,143.850739 230.539429,144.144440 229.533798,144.988831 
	C227.900711,146.360092 225.355087,148.112976 225.381866,149.667084 
	C225.428329,152.362869 227.736908,153.896255 231.109634,151.935486 
M18.109159,133.551819 
	C8.015666,132.008057 3.806321,141.413406 6.933849,148.057770 
	C9.396905,153.290482 16.708935,154.882965 20.235435,150.500916 
	C18.826921,150.641068 17.781876,150.799500 16.732264,150.840225 
	C11.815710,151.030945 8.874096,148.240860 8.848457,143.401321 
	C8.821145,138.245895 11.392689,135.861633 17.026396,135.818985 
	C19.683100,135.798874 19.683100,135.798874 18.109159,133.551819 
M137.596329,146.325516 
	C136.620865,140.572296 134.664703,138.573303 130.294754,138.876755 
	C126.238098,139.158463 124.397804,141.730835 124.100967,145.406998 
	C123.802559,149.102570 125.314499,152.135422 129.182495,152.870193 
	C133.646622,153.718231 136.536942,151.630005 137.596329,146.325516 
M188.671509,143.229126 
	C186.899261,135.717697 181.068344,140.679077 177.505951,139.282822 
	C177.505951,143.948807 177.505951,148.376480 177.505951,152.804153 
	C178.140274,152.852295 178.774612,152.900436 179.408936,152.948593 
	C179.522934,150.236191 179.306854,147.450897 179.883362,144.840652 
	C180.194382,143.432419 181.861511,142.323700 182.916824,141.079865 
	C183.931549,142.311310 185.576996,143.428421 185.825363,144.798767 
	C186.294739,147.388474 185.960999,150.123734 185.960999,152.798508 
	C186.742126,152.837280 187.523270,152.876068 188.304398,152.914841 
	C188.469284,149.966644 188.634171,147.018448 188.671509,143.229126 
M103.995583,151.918167 
	C106.552719,152.304092 106.402931,152.288101 106.721725,149.303238 
	C107.067871,146.062363 107.730385,142.855301 108.254944,139.633484 
	C108.534485,139.056793 106.803154,137.446518 106.959023,137.236420 
	C107.994560,135.840683 109.434151,134.744720 110.742332,133.551270 
	C109.097145,132.809052 106.720802,132.529556 105.975830,133.501053 
	C104.370995,135.593872 102.878479,138.272003 102.675446,140.817123 
	C102.407761,144.172791 103.421875,147.630692 103.995583,151.918167 
M65.917061,150.950912 
	C65.917061,144.911179 65.917061,138.871429 65.917061,132.831696 
	C65.104088,132.859604 64.291115,132.887512 63.478146,132.915421 
	C63.478146,139.378479 63.478146,145.841537 63.478146,152.304596 
	C64.251999,152.144958 65.025856,151.985306 65.917061,150.950912 
M156.709885,146.672974 
	C158.004974,144.185562 159.300064,141.698151 160.648987,139.107376 
	C158.463165,139.226120 156.327759,139.342133 154.653809,139.433060 
	C154.653809,144.099731 154.653809,148.490906 154.653809,152.882080 
	C155.154282,152.889771 155.654755,152.897446 156.155228,152.905121 
	C156.337723,151.113800 156.520218,149.322479 156.709885,146.672974 
M206.049622,143.683456 
	C206.049622,146.750793 206.049622,149.818130 206.049622,152.885468 
	C206.762100,152.865265 207.474594,152.845078 208.187073,152.824875 
	C208.187073,148.239395 208.187073,143.653900 208.187073,139.068420 
	C207.667496,139.023560 207.147919,138.978699 206.628342,138.933823 
	C206.435501,140.211655 206.242676,141.489471 206.049622,143.683456 
M85.557663,152.683548 
	C85.557663,148.135925 85.557663,143.588318 85.557663,138.207047 
	C82.648735,141.935043 82.553459,149.342255 85.557663,152.683548 
M129.559479,25.148134 
	C126.977455,25.990259 125.995064,27.869003 127.656685,29.933603 
	C128.275497,30.702507 131.367828,30.711464 132.096375,29.923820 
	C134.053894,27.807482 132.717667,26.100233 129.559479,25.148134 
z"/>
<path fill="#0D4F92" opacity="1.000000" stroke="none" 
	d="
M169.784271,114.549767 
	C164.508057,121.558136 157.674850,121.840706 150.242630,120.327957 
	C147.968658,119.865120 145.582138,119.955215 142.458603,119.737007 
	C142.458603,114.675285 142.458679,108.740685 142.458588,102.806076 
	C142.458466,95.652603 142.396637,88.498352 142.486298,81.346001 
	C142.525818,78.193527 142.702057,75.157928 137.561035,75.545479 
	C137.728928,75.058273 137.896820,74.571060 138.064713,74.083855 
	C141.360916,73.465538 144.657120,72.847221 148.730148,72.083191 
	C148.730148,75.755516 148.730148,78.853600 148.730148,81.951683 
	C148.730148,85.083664 148.730148,88.215637 148.730148,91.733490 
	C151.530487,90.423195 153.801010,89.001671 156.275528,88.271255 
	C163.286743,86.201729 169.371033,89.573257 171.304901,96.752556 
	C172.891846,102.643867 172.868164,108.586159 169.784271,114.549767 
M148.728882,110.148827 
	C148.748352,114.421295 150.240143,117.726181 154.853455,118.519753 
	C158.680328,119.178055 161.952652,117.861374 163.532852,114.223450 
	C166.150314,108.197510 166.395081,101.901367 163.789932,95.819763 
	C162.248749,92.221947 159.123947,90.791534 155.163269,91.597740 
	C151.259186,92.392426 148.940201,94.678596 148.785675,98.742577 
	C148.652969,102.232422 148.735489,105.730446 148.728882,110.148827 
z"/>
<path fill="#084C90" opacity="1.000000" stroke="none" 
	d="
M204.347244,106.675873 
	C204.618057,91.653862 212.865448,85.379372 228.157211,88.913841 
	C226.523743,83.947273 231.664200,77.675163 222.374954,74.289711 
	C226.874847,73.451935 230.026627,72.865135 233.836624,72.155800 
	C233.923538,74.122925 234.062012,75.838470 234.065002,77.554245 
	C234.084671,88.866859 234.196808,100.181564 234.007095,111.491028 
	C233.943436,115.285095 234.163055,118.400650 239.383820,118.728432 
	C234.283340,121.299385 228.964996,120.623543 227.541092,117.917412 
	C224.566040,118.967369 221.707748,120.583473 218.706955,120.916817 
	C210.928070,121.780907 206.237488,117.023697 204.347244,106.675873 
M227.989929,102.573967 
	C227.989944,101.414742 227.911346,100.249199 228.003799,99.097397 
	C228.367966,94.561409 226.829117,91.236649 222.100861,90.178108 
	C218.141479,89.291695 214.033813,91.860435 212.486130,96.276344 
	C210.561066,101.769073 210.440964,107.319183 212.958542,112.707184 
	C214.855621,116.767204 218.214111,118.025894 222.418915,117.125099 
	C226.476273,116.255890 228.035614,113.426094 227.993118,109.484009 
	C227.971710,107.496986 227.989731,105.509544 227.989929,102.573967 
z"/>
<path fill="#0C4F91" opacity="1.000000" stroke="none" 
	d="
M4.152766,89.468994 
	C9.879171,76.102135 26.401129,70.000908 39.074905,76.373856 
	C40.047226,76.862778 40.758869,78.595627 40.911160,79.833969 
	C41.199837,82.181320 40.994690,84.589409 39.901741,87.158585 
	C39.459396,86.603889 38.789536,86.113998 38.610203,85.484398 
	C36.972347,79.734085 33.135201,77.082428 27.240845,76.926468 
	C20.779308,76.755516 15.811732,79.219231 13.068126,85.122688 
	C9.302471,93.225311 9.297019,101.570068 12.671513,109.807983 
	C15.126713,115.801704 19.867935,118.854874 26.293045,118.933372 
	C32.650192,119.011055 37.006237,115.981354 39.130077,109.865273 
	C39.470608,108.884644 40.212967,108.043549 40.963982,106.821625 
	C43.344112,115.519524 41.414829,119.354927 33.583752,120.506508 
	C28.879169,121.198318 23.870676,121.342621 19.211042,120.524277 
	C7.205631,118.415840 0.914607,107.253860 3.266404,93.262375 
	C3.458987,92.116646 3.785068,90.993362 4.152766,89.468994 
z"/>
<path fill="#0E5092" opacity="1.000000" stroke="none" 
	d="
M74.986626,118.537094 
	C69.871483,122.179443 67.112282,122.041763 63.069462,117.878815 
	C60.990631,118.788742 58.945675,119.924217 56.758083,120.593468 
	C51.503483,122.201004 46.508442,119.794380 44.975353,115.131172 
	C43.189510,109.699158 45.382011,105.874557 51.447300,103.853516 
	C54.119259,102.963196 56.778347,102.029022 59.473843,101.216133 
	C61.878487,100.490967 64.219711,99.398293 63.281792,96.508385 
	C62.550121,94.253967 61.178032,91.333038 59.331280,90.586502 
	C57.803986,89.969109 55.084885,91.953049 53.064957,93.088722 
	C52.354565,93.488121 52.380581,95.135071 51.668827,95.607658 
	C50.317390,96.505005 48.676365,96.966209 47.155624,97.608566 
	C47.015137,95.869888 46.115810,93.543037 46.904957,92.524925 
	C48.218975,90.829666 50.484821,89.337593 52.585133,88.906662 
	C56.086105,88.188362 59.833775,87.878464 63.365688,88.310753 
	C67.557816,88.823853 69.434212,91.967690 69.437233,96.160965 
	C69.441177,101.643677 69.448174,107.126396 69.464134,112.609085 
	C69.473816,115.935791 70.685753,118.095947 74.726105,118.058174 
	C74.970383,118.417229 74.986626,118.537094 74.986626,118.537094 
M52.030106,107.752884 
	C52.332561,110.490829 51.874928,113.722961 53.216022,115.785606 
	C54.051090,117.069962 58.319458,117.626602 59.763168,116.636963 
	C61.647461,115.345345 62.644894,112.302490 63.304935,109.821823 
	C63.869923,107.698410 63.421875,105.305458 63.421875,102.013222 
	C59.238770,103.971397 55.867764,105.549408 52.030106,107.752884 
z"/>
<path fill="#0D5092" opacity="1.000000" stroke="none" 
	d="
M178.565430,119.762947 
	C171.838821,113.140846 173.300705,106.495514 181.703613,103.737457 
	C184.227859,102.908936 186.734940,102.024010 189.277786,101.257492 
	C191.856537,100.480148 194.327103,99.343437 193.273331,96.174812 
	C192.565308,94.045822 191.055267,90.963608 189.456940,90.659744 
	C187.463776,90.280838 184.978088,92.255806 182.782181,93.366821 
	C182.305038,93.608231 182.268600,94.603951 181.831329,95.064354 
	C180.819702,96.129524 179.817444,97.380508 178.541519,97.933945 
	C178.002655,98.167679 175.972900,96.754196 176.024750,96.227783 
	C176.187256,94.578606 176.590744,92.585464 177.668472,91.461845 
	C181.164886,87.816589 190.696030,86.203812 194.982834,89.034386 
	C197.080872,90.419724 198.821564,93.587570 199.149292,96.150047 
	C199.799225,101.231911 199.289490,106.454773 199.389633,111.616821 
	C199.457443,115.112801 199.620071,118.710472 205.257202,117.526596 
	C201.280289,122.126587 196.991013,122.068825 194.384048,119.347519 
	C188.358932,119.584404 183.633942,119.770172 178.565430,119.762947 
M184.338181,105.818161 
	C180.651047,107.713966 179.867416,111.025177 181.828278,114.076759 
	C182.944809,115.814392 185.985092,117.139915 188.182999,117.175507 
	C191.966614,117.236801 193.340485,114.140602 193.497818,110.694633 
	C193.621078,107.995094 193.522522,105.285423 193.522522,102.190948 
	C190.181351,103.462196 187.588501,104.448708 184.338181,105.818161 
z"/>
<path fill="#125394" opacity="1.000000" stroke="none" 
	d="
M125.336578,118.429489 
	C129.238358,118.808807 132.242523,118.017220 132.863083,114.068222 
	C133.474213,110.179482 130.638367,108.500771 127.598366,107.196396 
	C125.018303,106.089386 122.189003,105.374779 119.881660,103.859604 
	C114.961349,100.628571 114.895493,93.918365 119.466812,90.247002 
	C122.701172,87.649399 131.599655,86.466522 134.545868,89.189857 
	C136.307465,90.818199 136.367203,94.287689 137.191940,96.929588 
	C136.540588,97.177711 135.889236,97.425842 135.237885,97.673965 
	C134.669067,96.511772 134.152298,95.320473 133.521576,94.192902 
	C131.694183,90.925957 128.942352,89.098099 125.309708,90.602280 
	C123.785828,91.233299 122.178520,93.222641 121.901703,94.818649 
	C121.674690,96.127495 123.000267,98.370041 124.275917,99.136864 
	C126.935974,100.735886 130.044525,101.572502 132.920486,102.832634 
	C136.831848,104.546455 138.896790,107.642372 138.636490,111.879707 
	C138.361298,116.359718 135.704727,119.261086 131.419373,120.346657 
	C129.208649,120.906677 126.816109,121.106079 124.535721,120.969040 
	C116.764931,120.502083 114.916977,117.805862 116.366531,110.286858 
	C119.066551,112.827560 121.993637,115.581924 125.336578,118.429489 
z"/>
<path fill="#125394" opacity="1.000000" stroke="none" 
	d="
M167.197632,57.542580 
	C166.196259,60.474155 165.194901,63.405731 163.776917,66.469246 
	C163.171875,66.255371 162.983444,65.909561 162.795029,65.563751 
	C162.510117,62.496162 162.606262,59.329597 161.841843,56.386559 
	C160.929062,52.872387 159.289490,49.545654 157.947220,46.144653 
	C154.651825,37.794811 154.647781,37.796406 145.120941,38.265190 
	C145.120941,43.635628 144.670898,49.122017 145.379227,54.454540 
	C145.609146,56.185471 148.870316,57.513752 151.225204,59.413612 
	C148.830826,59.573536 145.456436,60.766617 143.288162,59.639477 
	C141.533600,58.727402 140.752380,55.088230 140.401474,52.540012 
	C139.928680,49.106461 140.514755,45.537056 140.186508,42.069489 
	C140.019745,40.307812 138.845825,38.641483 138.062149,36.777336 
	C139.660675,35.141834 141.955475,32.793945 144.714737,29.970848 
	C144.885376,31.869982 145.047180,33.670780 145.255020,35.983841 
	C151.072144,35.983841 156.945435,35.983841 162.818741,35.983841 
	C162.876816,36.263897 162.934906,36.543957 162.992981,36.824013 
	C162.095642,37.341160 161.198288,37.858307 159.977432,38.561893 
	C161.857071,43.560654 163.776917,48.666393 165.914261,54.449959 
	C166.487030,55.932720 166.842331,56.737648 167.197632,57.542580 
z"/>
<path fill="#155595" opacity="1.000000" stroke="none" 
	d="
M99.102768,28.993824 
	C104.230293,25.426096 109.646370,25.269539 115.196342,25.859051 
	C121.913483,26.572535 122.693794,27.813393 120.433792,36.333294 
	C118.906013,29.058661 114.767662,26.841612 108.962433,27.539391 
	C102.204361,28.351702 98.285217,34.591549 98.569397,43.874649 
	C98.845718,52.901291 103.054222,58.509876 109.962189,58.907837 
	C116.098976,59.261372 119.113892,55.345573 121.128441,49.734035 
	C123.154434,57.578861 122.296806,58.964199 115.193184,60.236496 
	C105.743492,61.928986 98.299538,59.292912 95.066315,53.109119 
	C91.028542,45.386555 92.528252,35.774426 99.102768,28.993824 
z"/>
<path fill="#04498E" opacity="1.000000" stroke="none" 
	d="
M110.630562,120.210175 
	C106.221931,120.210564 102.272850,120.210564 98.323761,120.210564 
	C105.353714,117.693863 102.792587,111.937027 102.905800,107.380081 
	C103.107826,99.247780 102.962914,91.106850 102.962563,82.969528 
	C102.962311,77.099846 102.961952,77.099846 98.090767,74.127937 
	C101.848183,73.440331 105.031677,72.857742 109.055702,72.121346 
	C109.055702,74.195328 109.055702,75.918854 109.055702,77.642380 
	C109.055733,88.934990 109.026741,100.227722 109.073456,111.520134 
	C109.087479,114.909821 107.731789,119.289169 115.209930,118.072762 
	C114.767143,118.567162 114.324348,119.061562 113.881561,119.555969 
	C112.951073,119.773911 112.020584,119.991852 110.630562,120.210175 
z"/>
<path fill="#084C90" opacity="1.000000" stroke="none" 
	d="
M75.406158,118.839539 
	C74.986626,118.537094 74.970383,118.417229 74.948425,118.394424 
	C79.805550,118.905396 81.253159,116.551254 80.911179,111.940575 
	C80.567474,107.306694 80.700302,102.622223 80.879074,97.969711 
	C81.018326,94.345718 81.041855,91.019653 76.334831,89.520241 
	C79.314102,88.951546 82.293381,88.382851 85.610985,87.749573 
	C86.203186,89.253899 86.721046,90.569351 87.332619,92.122871 
	C88.178581,91.561676 88.932343,90.940437 89.785248,90.520599 
	C91.674332,89.590675 93.579643,88.228081 95.545151,88.104477 
	C96.617920,88.037010 97.827072,90.138245 98.974716,91.261429 
	C97.598473,92.268082 96.078011,94.287193 94.869675,94.115082 
	C87.683182,93.091400 87.060005,93.456764 87.014236,100.813614 
	C86.997673,103.476021 86.960564,106.139793 87.022873,108.800842 
	C87.127136,113.253914 85.012466,118.959290 93.975182,118.586121 
	C93.546478,119.240845 93.117775,119.895569 92.689064,120.550293 
	C87.067940,120.080849 81.446808,119.611412 75.406158,118.839539 
z"/>
<path fill="#135494" opacity="1.000000" stroke="none" 
	d="
M208.039612,37.886799 
	C211.911926,41.795609 212.505707,46.324142 211.719849,51.070869 
	C210.660965,57.466702 206.315613,60.829926 199.809601,60.620064 
	C193.255051,60.408638 189.321182,56.828812 188.689651,50.267349 
	C188.213547,45.320400 188.483200,40.326572 193.184433,37.380489 
	C197.902786,34.423679 202.938309,34.669296 208.039612,37.886799 
M194.964691,55.099895 
	C197.109741,56.229118 199.535233,58.572132 201.323914,58.158882 
	C203.256409,57.712406 205.443909,54.903877 205.987381,52.740574 
	C206.762070,49.657074 206.389801,46.196445 206.045990,42.945709 
	C205.695068,39.627525 203.445496,36.803249 200.204544,37.564621 
	C197.888672,38.108669 194.985123,40.840961 194.430435,43.107494 
	C193.569885,46.623875 194.486618,50.575191 194.964691,55.099895 
z"/>
<path fill="#599B3C" opacity="1.000000" stroke="none" 
	d="
M65.184067,20.483650 
	C59.750744,29.955902 58.771862,40.094135 61.507118,51.505669 
	C52.738918,42.656155 52.012501,17.959457 63.161907,7.280453 
	C64.295120,11.635508 64.739594,16.059578 65.184067,20.483650 
z"/>
<path fill="#125394" opacity="1.000000" stroke="none" 
	d="
M224.004425,26.010468 
	C223.548798,29.068373 223.093201,32.126274 222.595276,35.468227 
	C225.093933,35.846893 227.035324,36.141106 228.976730,36.435318 
	C228.994049,36.838028 229.011353,37.240734 229.028671,37.643440 
	C227.237061,37.873417 225.445465,38.103390 223.085754,38.406288 
	C223.085754,44.105457 222.861893,49.904282 223.254761,55.661015 
	C223.344681,56.978550 225.559738,58.151062 226.897949,59.491730 
	C223.275131,59.491730 219.270309,59.491730 215.337265,59.491730 
	C220.015625,55.536598 219.647522,39.275940 215.646957,37.608669 
	C216.651794,35.463909 217.572128,33.347782 218.622925,31.298559 
	C219.713623,29.171534 220.930603,27.109268 222.692352,25.082117 
	C223.529694,25.433857 223.767059,25.722160 224.004425,26.010468 
z"/>
<path fill="#0464AB" opacity="1.000000" stroke="none" 
	d="
M50.773987,23.977886 
	C50.466393,32.813553 51.967545,41.268776 55.817577,49.788651 
	C54.988808,55.085140 54.416519,59.768978 53.844231,64.452820 
	C51.433659,61.929935 49.023090,59.407047 46.863289,56.333733 
	C47.405151,54.877045 47.941307,53.972858 47.949005,53.064201 
	C48.017166,45.021156 48.034267,36.976826 47.940090,28.934351 
	C47.928230,27.921316 47.185268,26.916843 46.781040,25.908403 
	C47.308388,25.033134 47.835735,24.157866 48.885006,23.220493 
	C49.862617,23.431557 50.318302,23.704721 50.773987,23.977886 
z"/>
<path fill="#076CB3" opacity="1.000000" stroke="none" 
	d="
M46.495819,26.090889 
	C47.185268,26.916843 47.928230,27.921316 47.940090,28.934351 
	C48.034267,36.976826 48.017166,45.021156 47.949005,53.064201 
	C47.941307,53.972858 47.405151,54.877045 46.713142,56.010880 
	C38.640976,45.692162 38.617367,38.732464 46.495819,26.090889 
z"/>
<path fill="#195897" opacity="1.000000" stroke="none" 
	d="
M132.315033,42.281528 
	C132.315125,46.058170 132.045837,49.403790 132.407730,52.679680 
	C132.660431,54.967102 133.777206,57.159065 134.588806,59.640663 
	C131.936050,59.640663 128.150345,59.640663 124.451370,59.640663 
	C128.652710,55.390541 128.762558,40.123520 123.718658,36.838173 
	C126.869232,36.334923 129.331543,35.941612 132.315155,35.465027 
	C132.315155,37.913528 132.315155,39.867130 132.315033,42.281528 
z"/>
<path fill="#2282C3" opacity="1.000000" stroke="none" 
	d="
M45.918297,149.836197 
	C44.938454,155.182709 40.838577,151.519257 38.455315,152.801910 
	C38.026188,153.032867 34.962063,150.164871 35.206852,149.511292 
	C35.918205,147.612015 37.514744,145.902161 39.120022,144.536392 
	C39.996876,143.790375 41.594170,143.891174 42.866566,143.610107 
	C42.965935,143.123169 43.065300,142.636246 43.164669,142.149307 
	C40.961525,141.627350 38.758381,141.105392 36.555237,140.583435 
	C36.484726,140.269745 36.414215,139.956070 36.343704,139.642380 
	C38.340515,139.429428 40.572369,138.575409 42.263741,139.195526 
	C43.760555,139.744324 45.131641,141.775131 45.687897,143.442062 
	C46.290081,145.246613 45.884422,147.387466 45.918297,149.836197 
z"/>
<path fill="#055DA3" opacity="1.000000" stroke="none" 
	d="
M54.021824,64.718307 
	C54.416519,59.768978 54.988808,55.085140 55.874283,50.156746 
	C58.415527,52.990475 60.643597,56.068760 62.823013,59.844872 
	C62.518112,63.653221 62.261860,66.763741 62.005608,69.874260 
	C59.403545,68.244110 56.801483,66.613953 54.021824,64.718307 
z"/>
<path fill="#197DC1" opacity="1.000000" stroke="none" 
	d="
M230.957581,152.288452 
	C227.736908,153.896255 225.428329,152.362869 225.381866,149.667084 
	C225.355087,148.112976 227.900711,146.360092 229.533798,144.988831 
	C230.539429,144.144440 232.007477,143.850739 233.267899,143.309784 
	C233.283142,142.855423 233.298370,142.401077 233.313614,141.946732 
	C231.181656,141.464966 229.049683,140.983215 226.974243,140.514236 
	C231.638138,137.325409 235.605591,138.844254 236.029877,144.012512 
	C236.138535,145.336243 236.055923,146.675812 236.057846,148.008102 
	C236.059982,149.494202 236.058304,150.980301 236.058304,152.505478 
	C234.213104,152.292953 232.661362,152.114227 230.957581,152.288452 
z"/>
<path fill="#1D7FC2" opacity="1.000000" stroke="none" 
	d="
M18.500708,133.679947 
	C19.683100,135.798874 19.683100,135.798874 17.026396,135.818985 
	C11.392689,135.861633 8.821145,138.245895 8.848457,143.401321 
	C8.874096,148.240860 11.815710,151.030945 16.732264,150.840225 
	C17.781876,150.799500 18.826921,150.641068 20.235435,150.500916 
	C16.708935,154.882965 9.396905,153.290482 6.933849,148.057770 
	C3.806321,141.413406 8.015666,132.008057 18.500708,133.679947 
z"/>
<path fill="#1D7FC2" opacity="1.000000" stroke="none" 
	d="
M137.524139,146.697113 
	C136.536942,151.630005 133.646622,153.718231 129.182495,152.870193 
	C125.314499,152.135422 123.802559,149.102570 124.100967,145.406998 
	C124.397804,141.730835 126.238098,139.158463 130.294754,138.876755 
	C134.664703,138.573303 136.620865,140.572296 137.524139,146.697113 
M134.475723,147.828217 
	C133.642700,145.578156 132.809692,143.328110 131.976669,141.078049 
	C130.438614,141.760025 127.640724,142.369583 127.596573,143.137466 
	C127.459198,145.527054 128.365585,147.976639 128.867142,150.402954 
	C130.637009,149.783234 132.406891,149.163513 134.475723,147.828217 
z"/>
<path fill="#1D7FC2" opacity="1.000000" stroke="none" 
	d="
M188.735291,143.649689 
	C188.634171,147.018448 188.469284,149.966644 188.304398,152.914841 
	C187.523270,152.876068 186.742126,152.837280 185.960999,152.798508 
	C185.960999,150.123734 186.294739,147.388474 185.825363,144.798767 
	C185.576996,143.428421 183.931549,142.311310 182.916809,141.079865 
	C181.861511,142.323700 180.194382,143.432419 179.883362,144.840652 
	C179.306854,147.450897 179.522934,150.236191 179.408936,152.948593 
	C178.774612,152.900436 178.140274,152.852295 177.505951,152.804153 
	C177.505951,148.376480 177.505951,143.948807 177.505951,139.282822 
	C181.068344,140.679077 186.899261,135.717697 188.735291,143.649689 
z"/>
<path fill="#05559B" opacity="1.000000" stroke="none" 
	d="
M62.280228,70.115723 
	C62.261860,66.763741 62.518112,63.653221 62.940620,60.154636 
	C65.950005,61.986149 68.793137,64.205727 71.820419,67.175644 
	C71.956474,69.819023 71.908379,71.712074 71.860283,73.605118 
	C68.758469,72.522476 65.656662,71.439835 62.280228,70.115723 
z"/>
<path fill="#F68D3D" opacity="1.000000" stroke="none" 
	d="
M64.051765,30.065405 
	C65.587929,21.651354 71.312004,16.463333 78.699524,12.009941 
	C79.984787,13.431106 80.541748,14.837996 81.098701,16.244884 
	C74.127678,18.963545 68.992966,23.912388 64.324577,29.910051 
	C64.015968,30.017715 64.051765,30.065405 64.051765,30.065405 
z"/>
<path fill="#2B87C5" opacity="1.000000" stroke="none" 
	d="
M103.940254,151.481415 
	C103.421875,147.630692 102.407761,144.172791 102.675446,140.817123 
	C102.878479,138.272003 104.370995,135.593872 105.975830,133.501053 
	C106.720802,132.529556 109.097145,132.809052 110.742332,133.551270 
	C109.434151,134.744720 107.994560,135.840683 106.959023,137.236420 
	C106.803154,137.446518 108.534485,139.056793 108.254944,139.633484 
	C107.730385,142.855301 107.067871,146.062363 106.721725,149.303238 
	C106.402931,152.288101 106.552719,152.304092 103.940254,151.481415 
z"/>
<path fill="#0E5092" opacity="1.000000" stroke="none" 
	d="
M72.192139,73.775131 
	C71.908379,71.712074 71.956474,69.819023 72.006073,67.456253 
	C78.716469,69.661980 85.425346,72.337440 92.134232,75.012901 
	C92.174843,75.185020 92.215462,75.357147 92.256081,75.529274 
	C85.678719,75.001228 79.101364,74.473190 72.192139,73.775131 
z"/>
<path fill="#68A841" opacity="1.000000" stroke="none" 
	d="
M65.469238,20.283047 
	C64.739594,16.059578 64.295120,11.635508 63.460678,7.119295 
	C65.112503,5.943408 67.154289,4.859662 69.588074,4.254650 
	C70.408234,7.531552 70.836403,10.329721 71.264580,13.127890 
	C69.427856,15.446074 67.591125,17.764259 65.469238,20.283047 
z"/>
<path fill="#135494" opacity="1.000000" stroke="none" 
	d="
M167.462021,57.272732 
	C166.842331,56.737648 166.487030,55.932720 166.067169,54.806107 
	C167.972931,49.472656 169.943283,44.460896 172.015411,39.190216 
	C170.604889,38.206394 169.542923,37.465691 167.711731,36.188461 
	C171.613724,36.188461 174.540131,36.188461 176.348785,36.188461 
	C173.585907,42.858044 170.656158,49.930462 167.462021,57.272732 
z"/>
<path fill="#FCB53D" opacity="1.000000" stroke="none" 
	d="
M90.007957,7.077937 
	C92.093452,6.808222 94.178947,6.538506 96.635193,6.848943 
	C97.005783,9.909822 97.005623,12.390549 97.005455,14.871275 
	C94.932106,14.690547 92.858765,14.509819 90.397522,13.779948 
	C90.009071,11.179850 90.008514,9.128893 90.007957,7.077937 
z"/>
<path fill="#2B87C5" opacity="1.000000" stroke="none" 
	d="
M65.858383,151.388275 
	C65.025856,151.985306 64.251999,152.144958 63.478146,152.304596 
	C63.478146,145.841537 63.478146,139.378479 63.478146,132.915421 
	C64.291115,132.887512 65.104088,132.859604 65.917061,132.831696 
	C65.917061,138.871429 65.917061,144.911179 65.858383,151.388275 
z"/>
<path fill="#2B87C5" opacity="1.000000" stroke="none" 
	d="
M156.706299,147.102066 
	C156.520218,149.322479 156.337723,151.113800 156.155228,152.905121 
	C155.654755,152.897446 155.154282,152.889771 154.653809,152.882080 
	C154.653809,148.490906 154.653809,144.099731 154.653809,139.433060 
	C156.327759,139.342133 158.463165,139.226120 160.648987,139.107376 
	C159.300064,141.698151 158.004974,144.185562 156.706299,147.102066 
z"/>
<path fill="#FFD611" opacity="1.000000" stroke="none" 
	d="
M102.991646,8.995993 
	C105.574913,11.512250 108.158173,14.028507 110.741440,16.544765 
	C110.379990,17.140224 110.018539,17.735685 109.657097,18.331144 
	C107.332664,17.632730 105.008224,16.934319 102.340042,15.662405 
	C102.328072,13.057934 102.659859,11.026963 102.991646,8.995993 
z"/>
<path fill="#FFC729" opacity="1.000000" stroke="none" 
	d="
M102.803421,8.719297 
	C102.659859,11.026963 102.328072,13.057934 102.001663,15.500916 
	C100.570450,15.648421 99.133865,15.383914 97.351364,14.995340 
	C97.005623,12.390549 97.005783,9.909822 97.006744,7.033061 
	C98.876762,7.238885 100.745987,7.840743 102.803421,8.719297 
z"/>
<path fill="#6EB03C" opacity="1.000000" stroke="none" 
	d="
M71.558167,13.011547 
	C70.836403,10.329721 70.408234,7.531552 69.965866,4.274405 
	C71.060959,3.575418 72.170258,3.335410 73.691055,3.503752 
	C74.392921,5.886230 74.683273,7.860360 74.973618,9.834488 
	C73.932991,10.854726 72.892372,11.874965 71.558167,13.011547 
z"/>
<path fill="#2B87C5" opacity="1.000000" stroke="none" 
	d="
M206.049728,143.225372 
	C206.242676,141.489471 206.435501,140.211655 206.628342,138.933823 
	C207.147919,138.978699 207.667496,139.023560 208.187073,139.068420 
	C208.187073,143.653900 208.187073,148.239395 208.187073,152.824875 
	C207.474594,152.845078 206.762100,152.865265 206.049622,152.885468 
	C206.049622,149.818130 206.049622,146.750793 206.049728,143.225372 
z"/>
<path fill="#2B87C5" opacity="1.000000" stroke="none" 
	d="
M85.128555,152.759491 
	C82.553459,149.342255 82.648735,141.935043 85.557663,138.207047 
	C85.557663,143.588318 85.557663,148.135925 85.128555,152.759491 
z"/>
<path fill="#82BF4C" opacity="1.000000" stroke="none" 
	d="
M75.318054,9.824099 
	C74.683273,7.860360 74.392921,5.886230 74.039742,3.544057 
	C77.181526,3.176012 80.386139,3.176012 83.590752,3.176012 
	C83.704994,3.563242 83.819237,3.950473 83.933487,4.337704 
	C81.176491,6.163039 78.419495,7.988374 75.318054,9.824099 
z"/>
<path fill="#225E9B" opacity="1.000000" stroke="none" 
	d="
M162.527985,65.785446 
	C162.983444,65.909561 163.171875,66.255371 163.597992,66.778328 
	C162.129532,68.540001 160.570175,70.359421 158.631042,71.571060 
	C158.020782,71.952370 156.182251,70.924889 155.315292,70.107819 
	C154.869537,69.687729 155.037109,67.669861 155.428894,67.494576 
	C156.407120,67.056908 157.698898,67.393578 158.814636,67.169525 
	C159.993668,66.932747 161.114609,66.406769 162.527985,65.785446 
z"/>
<path fill="#F79646" opacity="1.000000" stroke="none" 
	d="
M81.460800,16.209846 
	C80.541748,14.837996 79.984787,13.431106 79.026009,11.931875 
	C80.847664,10.615142 83.071152,9.390749 85.645218,8.572208 
	C85.994682,10.960695 85.993553,12.943330 85.992416,14.925964 
	C84.602577,15.342245 83.212738,15.758527 81.460800,16.209846 
z"/>
<path fill="#155595" opacity="1.000000" stroke="none" 
	d="
M129.940552,25.151697 
	C132.717667,26.100233 134.053894,27.807482 132.096375,29.923820 
	C131.367828,30.711464 128.275497,30.702507 127.656685,29.933603 
	C125.995064,27.869003 126.977455,25.990259 129.940552,25.151697 
z"/>
<path fill="#F9A350" opacity="1.000000" stroke="none" 
	d="
M86.358719,14.969661 
	C85.993553,12.943330 85.994682,10.960695 85.993546,8.554567 
	C87.094971,7.745378 88.198654,7.359679 89.655151,7.025959 
	C90.008514,9.128893 90.009071,11.179850 90.020691,13.674184 
	C88.929504,14.416160 87.827271,14.714758 86.358719,14.969661 
z"/>
<path fill="#195897" opacity="1.000000" stroke="none" 
	d="
M224.378296,25.969875 
	C223.767059,25.722160 223.529694,25.433857 223.037323,25.020132 
	C225.401505,24.951799 228.056061,24.801126 230.610855,25.236271 
	C231.139969,25.326395 231.298325,27.593172 231.627533,28.856770 
	C230.433945,28.681732 229.137787,28.739359 228.073822,28.270292 
	C226.858749,27.734600 225.850372,26.730080 224.378296,25.969875 
z"/>
<path fill="#076CB3" opacity="1.000000" stroke="none" 
	d="
M50.843178,23.644844 
	C50.318302,23.704721 49.862617,23.431557 49.156559,23.068638 
	C49.218544,22.663118 49.530903,22.347355 49.843262,22.031590 
	C50.199635,22.458328 50.556004,22.885067 50.843178,23.644844 
z"/>
<path fill="#F68D3D" opacity="1.000000" stroke="none" 
	d="
M63.997513,29.994297 
	C63.824165,30.156225 63.669273,30.341574 63.514381,30.526922 
	C63.571777,30.310564 63.629177,30.094204 63.869171,29.971626 
	C64.051765,30.065405 64.015968,30.017715 63.997513,29.994297 
z"/>
<path fill="#FAFBFD" opacity="1.000000" stroke="none" 
	d="
M148.725861,109.686844 
	C148.735489,105.730446 148.652969,102.232422 148.785675,98.742577 
	C148.940201,94.678596 151.259186,92.392426 155.163269,91.597740 
	C159.123947,90.791534 162.248749,92.221947 163.789932,95.819763 
	C166.395081,101.901367 166.150314,108.197510 163.532852,114.223450 
	C161.952652,117.861374 158.680328,119.178055 154.853455,118.519753 
	C150.240143,117.726181 148.748352,114.421295 148.725861,109.686844 
z"/>
<path fill="#FAFCFD" opacity="1.000000" stroke="none" 
	d="
M227.989929,103.048126 
	C227.989731,105.509544 227.971710,107.496986 227.993118,109.484009 
	C228.035614,113.426094 226.476273,116.255890 222.418915,117.125099 
	C218.214111,118.025894 214.855621,116.767204 212.958542,112.707184 
	C210.440964,107.319183 210.561066,101.769073 212.486130,96.276344 
	C214.033813,91.860435 218.141479,89.291695 222.100861,90.178108 
	C226.829117,91.236649 228.367966,94.561409 228.003799,99.097397 
	C227.911346,100.249199 227.989944,101.414742 227.989929,103.048126 
z"/>
<path fill="#F7F9FC" opacity="1.000000" stroke="none" 
	d="
M52.263432,107.440155 
	C55.867764,105.549408 59.238770,103.971397 63.421875,102.013222 
	C63.421875,105.305458 63.869923,107.698410 63.304935,109.821823 
	C62.644894,112.302490 61.647461,115.345345 59.763168,116.636963 
	C58.319458,117.626602 54.051090,117.069962 53.216022,115.785606 
	C51.874928,113.722961 52.332561,110.490829 52.263432,107.440155 
z"/>
<path fill="#F0F4F8" opacity="1.000000" stroke="none" 
	d="
M184.666931,105.626694 
	C187.588501,104.448708 190.181351,103.462196 193.522522,102.190948 
	C193.522522,105.285423 193.621078,107.995094 193.497818,110.694633 
	C193.340485,114.140602 191.966614,117.236801 188.182999,117.175507 
	C185.985092,117.139915 182.944809,115.814392 181.828278,114.076759 
	C179.867416,111.025177 180.651047,107.713966 184.666931,105.626694 
z"/>
<path fill="#F7F9FC" opacity="1.000000" stroke="none" 
	d="
M194.807281,54.721008 
	C194.486618,50.575191 193.569885,46.623875 194.430435,43.107494 
	C194.985123,40.840961 197.888672,38.108669 200.204544,37.564621 
	C203.445496,36.803249 205.695068,39.627525 206.045990,42.945709 
	C206.389801,46.196445 206.762070,49.657074 205.987381,52.740574 
	C205.443909,54.903877 203.256409,57.712406 201.323914,58.158882 
	C199.535233,58.572132 197.109741,56.229118 194.807281,54.721008 
z"/>
<path fill="#F7F9FC" opacity="1.000000" stroke="none" 
	d="
M134.326233,148.186005 
	C132.406891,149.163513 130.637009,149.783234 128.867142,150.402954 
	C128.365585,147.976639 127.459198,145.527054 127.596573,143.137466 
	C127.640724,142.369583 130.438614,141.760025 131.976669,141.078049 
	C132.809692,143.328110 133.642700,145.578156 134.326233,148.186005 
z"/>
</svg>